<svg width="99" height="40" viewBox="0 0 99 40" fill="none" xmlns="http://www.w3.org/2000/svg">
<rect width="98.66" height="40" rx="7" fill="#A6A6A6"/>
<rect x="0.869995" y="0.880005" width="96.92" height="38.42" rx="6" fill="black"/>
<path d="M34.7614 7.22727H33.8807V14.5H34.7614V7.22727ZM37.2516 11.2188C37.2516 10.267 37.8411 9.72727 38.6436 9.72727C39.4213 9.72727 39.8936 10.2351 39.8936 11.0909V14.5H40.7317V11.0341C40.7317 9.64205 39.9895 8.97443 38.8851 8.97443C38.0613 8.97443 37.5499 9.34375 37.2942 9.89773H37.2232V9.04545H36.4135V14.5H37.2516V11.2188ZM46.1268 10.267C45.864 9.4929 45.2745 8.97443 44.195 8.97443C43.0444 8.97443 42.1921 9.62784 42.1921 10.5511C42.1921 11.304 42.6396 11.8082 43.641 12.0426L44.5501 12.2557C45.1005 12.3835 45.3597 12.6463 45.3597 13.0227C45.3597 13.4915 44.8626 13.875 44.0813 13.875C43.396 13.875 42.9663 13.5803 42.8171 12.9943L42.0217 13.1932C42.217 14.12 42.9805 14.6136 44.0955 14.6136C45.3633 14.6136 46.2262 13.9212 46.2262 12.9801C46.2262 12.2202 45.7504 11.7408 44.7773 11.5028L43.9677 11.304C43.3214 11.1442 43.0302 10.9276 43.0302 10.5085C43.0302 10.0398 43.5273 9.69886 44.195 9.69886C44.9265 9.69886 45.2283 10.1037 45.3739 10.4801L46.1268 10.267ZM49.8599 9.04545H48.6951V7.73864H47.8571V9.04545H47.0332V9.75568H47.8571V13.1648C47.8571 14.1165 48.6241 14.571 49.3343 14.571C49.6468 14.571 49.8457 14.5142 49.9593 14.4716L49.7889 13.7188C49.7179 13.733 49.6042 13.7614 49.4196 13.7614C49.0502 13.7614 48.6951 13.6477 48.6951 12.9375V9.75568H49.8599V9.04545ZM52.7257 14.6278C53.6774 14.6278 54.1745 14.1165 54.345 13.7614H54.3876V14.5H55.2257V10.9062C55.2257 9.1733 53.9047 8.97443 53.2086 8.97443C52.3848 8.97443 51.4473 9.25852 51.0211 10.2528L51.8166 10.5369C52.0012 10.1392 52.438 9.71307 53.237 9.71307C54.0076 9.71307 54.3876 10.1214 54.3876 10.821V10.8494C54.3876 11.2543 53.9757 11.2188 52.9814 11.3466C51.9693 11.478 50.8649 11.7017 50.8649 12.9517C50.8649 14.017 51.6887 14.6278 52.7257 14.6278ZM52.8535 13.875C52.1859 13.875 51.7029 13.5767 51.7029 12.9943C51.7029 12.3551 52.2853 12.1562 52.9387 12.071C53.2939 12.0284 54.2456 11.929 54.3876 11.7585V12.5256C54.3876 13.2074 53.8478 13.875 52.8535 13.875ZM57.5934 7.22727H56.7553V14.5H57.5934V7.22727ZM59.9664 7.22727H59.1284V14.5H59.9664V7.22727ZM66.6861 9.04545H65.5213V7.73864H64.6832V9.04545H63.8594V9.75568H64.6832V13.1648C64.6832 14.1165 65.4503 14.571 66.1605 14.571C66.473 14.571 66.6719 14.5142 66.7855 14.4716L66.6151 13.7188C66.544 13.733 66.4304 13.7614 66.2457 13.7614C65.8764 13.7614 65.5213 13.6477 65.5213 12.9375V9.75568H66.6861V9.04545ZM70.104 14.6136C71.5813 14.6136 72.5756 13.4915 72.5756 11.8011C72.5756 10.0966 71.5813 8.97443 70.104 8.97443C68.6268 8.97443 67.6325 10.0966 67.6325 11.8011C67.6325 13.4915 68.6268 14.6136 70.104 14.6136ZM70.104 13.8608C68.9819 13.8608 68.4705 12.8949 68.4705 11.8011C68.4705 10.7074 68.9819 9.72727 70.104 9.72727C71.2262 9.72727 71.7376 10.7074 71.7376 11.8011C71.7376 12.8949 71.2262 13.8608 70.104 13.8608ZM79.0396 9.04545H77.8748V7.73864H77.0368V9.04545H76.2129V9.75568H77.0368V13.1648C77.0368 14.1165 77.8038 14.571 78.514 14.571C78.8265 14.571 79.0254 14.5142 79.139 14.4716L78.9686 13.7188C78.8975 13.733 78.7839 13.7614 78.5993 13.7614C78.2299 13.7614 77.8748 13.6477 77.8748 12.9375V9.75568H79.0396V9.04545ZM81.2555 11.2188C81.2555 10.267 81.8627 9.72727 82.6902 9.72727C83.4785 9.72727 83.9544 10.2244 83.9544 11.0909V14.5H84.7924V11.0341C84.7924 9.63139 84.0467 8.97443 82.9316 8.97443C82.0723 8.97443 81.5822 9.3331 81.3265 9.89773H81.2555V7.22727H80.4174V14.5H81.2555V11.2188ZM88.6126 14.6136C89.7205 14.6136 90.5302 14.0597 90.7859 13.2358L89.9762 13.0085C89.7631 13.5767 89.2695 13.8608 88.6126 13.8608C87.6289 13.8608 86.9506 13.2251 86.9116 12.0568H90.8711V11.7017C90.8711 9.67045 89.6637 8.97443 88.5273 8.97443C87.0501 8.97443 86.07 10.1392 86.07 11.8153C86.07 13.4915 87.0359 14.6136 88.6126 14.6136ZM86.9116 11.3324C86.9684 10.4837 87.5685 9.72727 88.5273 9.72727C89.4364 9.72727 90.0188 10.4091 90.0188 11.3324H86.9116Z" fill="white"/>
<path d="M33.7382 31H35.7134V25.2919H41.2744V23.598H35.7134V19.6094H41.8561V17.9091H33.7382V31ZM44.3117 31H46.2229V21.1818H44.3117V31ZM45.2769 19.6669C45.9353 19.6669 46.485 19.1555 46.485 18.5291C46.485 17.9027 45.9353 17.3849 45.2769 17.3849C44.6121 17.3849 44.0688 17.9027 44.0688 18.5291C44.0688 19.1555 44.6121 19.6669 45.2769 19.6669ZM53.0906 34.8864C55.5899 34.8864 57.5203 33.7422 57.5203 31.2173V21.1818H55.6474V22.7734H55.5068C55.168 22.1662 54.4904 21.054 52.6623 21.054C50.2909 21.054 48.5458 22.9268 48.5458 26.0526C48.5458 29.1847 50.3292 30.853 52.6495 30.853C54.4521 30.853 55.1488 29.8366 55.494 29.2102H55.6154V31.1406C55.6154 32.6811 54.5607 33.3459 53.1098 33.3459C51.5181 33.3459 50.8981 32.5469 50.5593 31.9844L48.9166 32.6619C49.4343 33.8636 50.7447 34.8864 53.0906 34.8864ZM53.0714 29.2678C51.3647 29.2678 50.4762 27.9574 50.4762 26.027C50.4762 24.1413 51.3455 22.6776 53.0714 22.6776C54.7397 22.6776 55.6346 24.0391 55.6346 26.027C55.6346 28.0533 54.7205 29.2678 53.0714 29.2678ZM60.2635 31H62.1747V24.9467C62.1747 23.6236 63.1015 22.7031 64.1882 22.7031C65.2493 22.7031 65.9844 23.4062 65.9844 24.4737V31H67.8892V24.7422C67.8892 23.5597 68.6115 22.7031 69.8579 22.7031C70.8679 22.7031 71.6988 23.2656 71.6988 24.5952V31H73.6101V24.4162C73.6101 22.1726 72.3572 21.054 70.5802 21.054C69.1676 21.054 68.1065 21.7315 67.6335 22.7798H67.5312C67.103 21.706 66.2017 21.054 64.8913 21.054C63.5937 21.054 62.6285 21.6996 62.2194 22.7798H62.098V21.1818H60.2635V31ZM79.2089 31.2173C80.8325 31.2173 81.7466 30.3928 82.1109 29.6577H82.1876V31H84.0541V24.4801C84.0541 21.6229 81.8041 21.054 80.2444 21.054C78.4674 21.054 76.8311 21.7699 76.1919 23.5597L77.988 23.9688C78.2693 23.272 78.9852 22.6009 80.27 22.6009C81.5037 22.6009 82.1365 23.2464 82.1365 24.3587V24.4034C82.1365 25.1001 81.4206 25.0874 79.6564 25.2919C77.7963 25.5092 75.8914 25.995 75.8914 28.2259C75.8914 30.1562 77.3424 31.2173 79.2089 31.2173ZM79.6244 29.6832C78.5441 29.6832 77.7643 29.1974 77.7643 28.2514C77.7643 27.2287 78.672 26.8643 79.7778 26.7173C80.3978 26.6342 81.868 26.468 82.1429 26.1932V27.4588C82.1429 28.6222 81.216 29.6832 79.6244 29.6832Z" fill="white"/>
<g clip-path="url(#clip0)">
<path d="M14.0008 33C16.2084 33 18 31.1333 18 28.8333V24.6667H14.0008C11.7932 24.6667 10.0016 26.5334 10.0016 28.8333C10.0016 31.1333 11.7932 33 14.0008 33Z" fill="#0ACF83"/>
<path d="M10.0016 20.5C10.0016 18.2 11.7932 16.3333 14.0008 16.3333H18V24.6667H14.0008C11.7932 24.6667 10.0016 22.8 10.0016 20.5Z" fill="#A259FF"/>
<path d="M10.0024 12.1667C10.0024 9.86667 11.794 8 14.0016 8H18.0008V16.3333H14.0016C11.794 16.3333 10.0024 14.4667 10.0024 12.1667Z" fill="#F24E1E"/>
<path d="M18 8H21.9992C24.2068 8 25.9984 9.86667 25.9984 12.1667C25.9984 14.4667 24.2068 16.3333 21.9992 16.3333H18V8Z" fill="#FF7262"/>
<path d="M25.9984 20.5C25.9984 22.8 24.2068 24.6667 21.9992 24.6667C19.7916 24.6667 18 22.8 18 20.5C18 18.2 19.7916 16.3333 21.9992 16.3333C24.2068 16.3333 25.9984 18.2 25.9984 20.5Z" fill="#1ABCFE"/>
</g>
<defs>
<clipPath id="clip0">
<rect width="16" height="25" fill="white" transform="translate(10 8)"/>
</clipPath>
</defs>
</svg>
